<svg width="17px" height="24px" viewBox="0 0 17 24" version="1.1" xmlns="http://www.w3.org/2000/svg" xmlns:xlink="http://www.w3.org/1999/xlink">
    <g id="Page-1" stroke="none" stroke-width="1" fill="none" fill-rule="evenodd">
        <g id="02.34_tome_payment_form_1280" transform="translate(-315.000000, -440.000000)">
            <g id="знак-tome" transform="translate(315.000000, 440.000000)">
                <path d="M10.4274286,13.0121143 C9.92457143,13.7837714 9.1712,14.1686857 8.16548571,14.1686857 C7.13874286,14.1686857 6.3808,13.7883429 5.88891429,13.0267429 C5.39702857,12.2651429 5.15108571,11.0546286 5.15108571,9.39794286 C5.15108571,7.77874286 5.4016,6.58377143 5.90445714,5.81211429 C6.40731429,5.04137143 7.16068571,4.65554286 8.16548571,4.65554286 C9.19222857,4.65554286 9.95108571,5.03588571 10.4429714,5.7984 C10.9348571,6.56 11.1817143,7.7696 11.1817143,9.42628571 C11.1817143,11.0454857 10.9302857,12.2404571 10.4274286,13.0121143 M7.81257143,1.33942857 C7.5008,1.37142857 7.1872,1.38057143 6.87634286,1.41348571 C6.42102857,1.46377143 5.96845714,1.55062857 5.52685714,1.66857143 C4.93348571,1.82765714 4.35474286,2.048 3.81622857,2.34148571 C2.59017143,3.008 1.64845714,3.94605714 0.989257143,5.15565714 C0.329142857,6.36434286 0,7.77874286 0,9.39794286 C0,11.9497143 0.725942857,13.9364571 2.18148571,15.3545143 C3.63794286,16.7734857 5.632,17.4829714 8.16548571,17.4829714 C9.84137143,17.4829714 11.2914286,17.1501714 12.5165714,16.4836571 C13.7417143,15.8162286 14.6843429,14.8790857 15.3444571,13.6694857 C16.0036571,12.4598857 16.3328,11.0454857 16.3328,9.42628571 C16.3328,8.0064 16.1005714,6.76845714 15.6544,5.70057143 C15.3718857,5.03862857 15.2411429,4.2688 15.2411429,3.38742857 C15.2411429,2.39177143 15.4441143,1.52228571 15.8500571,0.778057143 C15.8893714,0.707657143 15.936,0.645485714 15.9780571,0.577828571 C16.0109714,0.540342857 16.0274286,0.482742857 16.0274286,0.4288 C16.0301714,0.340114286 15.9826286,0.286171429 15.8656,0.248685714 C15.8546286,0.248685714 15.7952,0.226742857 15.7842286,0.227657143 C15.0710857,0.0868571429 14.3158857,0 13.4930286,0 C12.5613714,0 11.6269714,0.0978285714 10.7254857,0.337371429 C10.3113143,0.447085714 9.90537143,0.586971429 9.51222857,0.758857143 C9.08342857,0.946285714 8.69394286,1.18765714 8.22948571,1.27908571 C8.09051429,1.30651429 7.95154286,1.3248 7.81257143,1.33942857" id="Fill-4" fill="#121413"></path>
                <path d="M8.16585143,23.8102857 C5.41750857,23.8102857 3.14916571,23.0441143 1.42390857,21.5328 C0.766537143,20.9558857 0.700708571,19.9565714 1.27670857,19.2992 C1.85088,18.6418286 2.85202286,18.5741714 3.50939429,19.1510857 C4.65682286,20.1568 6.18002286,20.6450286 8.16585143,20.6450286 C9.56653714,20.6450286 10.7752229,20.3734857 11.7608229,19.8377143 C12.0936229,19.6566857 12.4245943,19.4189714 12.7720229,19.1117714 C13.4266514,18.5321143 14.42688,18.5952 15.0056229,19.2489143 C15.5843657,19.9035429 15.5240229,20.9037714 14.86848,21.4825143 C14.3409371,21.9497143 13.8197943,22.3209143 13.2730514,22.6180571 C11.8193371,23.4098286 10.10048,23.8102857 8.16585143,23.8102857" id="Fill-6" fill="#E02130"></path>
            </g>
        </g>
    </g>
</svg>
