<svg width="394px" height="21px" viewBox="0 0 394 21" version="1.1" xmlns="http://www.w3.org/2000/svg" xmlns:xlink="http://www.w3.org/1999/xlink">
    <defs>
        <rect id="path-1" x="0" y="0" width="398" height="28"></rect>
        <path d="M8,15.0007595 L390,15.0007595 L390,2.79466889 C390,1.57900763 389.014512,0.593519465 387.798851,0.593519465 C387.426432,0.593519465 387.060101,0.688011779 386.734148,0.868151989 L381.256608,3.89535157 C379.268882,4.99388167 376.856118,4.99388167 374.868392,3.89535157 L369.319108,0.828501956 C367.331382,-0.270028142 364.918618,-0.270028142 362.930892,0.828501956 L357.381608,3.89535157 C355.393882,4.99388167 352.981118,4.99388167 350.993392,3.89535157 L345.444108,0.828501956 C343.456382,-0.270028142 341.043618,-0.270028142 339.055892,0.828501956 L333.506608,3.89535157 C331.518882,4.99388167 329.106118,4.99388167 327.118392,3.89535157 L321.569108,0.828501956 C319.581382,-0.270028142 317.168618,-0.270028142 315.180892,0.828501956 L309.631608,3.89535157 C307.643882,4.99388167 305.231118,4.99388167 303.243392,3.89535157 L297.694108,0.828501956 C295.706382,-0.270028142 293.293618,-0.270028142 291.305892,0.828501956 L285.756608,3.89535157 C283.768882,4.99388167 281.356118,4.99388167 279.368392,3.89535157 L273.819108,0.828501956 C271.831382,-0.270028142 269.418618,-0.270028142 267.430892,0.828501956 L261.881608,3.89535157 C259.893882,4.99388167 257.481118,4.99388167 255.493392,3.89535157 L249.944108,0.828501956 C247.956382,-0.270028142 245.543618,-0.270028142 243.555892,0.828501956 L238.006608,3.89535157 C236.018882,4.99388167 233.606118,4.99388167 231.618392,3.89535157 L226.069108,0.828501956 C224.081382,-0.270028142 221.668618,-0.270028142 219.680892,0.828501956 L214.131608,3.89535157 C212.143882,4.99388167 209.731118,4.99388167 207.743392,3.89535157 L202.194108,0.828501956 C200.206382,-0.270028142 197.793618,-0.270028142 195.805892,0.828501956 L190.256608,3.89535157 C188.268882,4.99388167 185.856118,4.99388167 183.868392,3.89535157 L178.319108,0.828501956 C176.331382,-0.270028142 173.918618,-0.270028142 171.930892,0.828501956 L166.381608,3.89535157 C164.393882,4.99388167 161.981118,4.99388167 159.993392,3.89535157 L154.444108,0.828501956 C152.456382,-0.270028142 150.043618,-0.270028142 148.055892,0.828501956 L142.506608,3.89535157 C140.518882,4.99388167 138.106118,4.99388167 136.118392,3.89535157 L130.569108,0.828501956 C128.581382,-0.270028142 126.168618,-0.270028142 124.180892,0.828501956 L118.631608,3.89535157 C116.643882,4.99388167 114.231118,4.99388167 112.243392,3.89535157 L106.694108,0.828501956 C104.706382,-0.270028142 102.293618,-0.270028142 100.305892,0.828501956 L94.7566075,3.89535157 C92.7688816,4.99388167 90.3561184,4.99388167 88.3683925,3.89535157 L82.8191075,0.828501956 C80.8313816,-0.270028142 78.4186184,-0.270028142 76.4308925,0.828501956 L70.8816075,3.89535157 C68.8938816,4.99388167 66.4811184,4.99388167 64.4933925,3.89535157 L58.9441075,0.828501956 C56.9563816,-0.270028142 54.5436184,-0.270028142 52.5558925,0.828501956 L47.0066075,3.89535157 C45.0188816,4.99388167 42.6061184,4.99388167 40.6183925,3.89535157 L35.0691075,0.828501956 C33.0813816,-0.270028142 30.6686184,-0.270028142 28.6808925,0.828501956 L23.1316075,3.89535157 C21.1438816,4.99388167 18.7311184,4.99388167 16.7433925,3.89535157 L11.2658519,0.868151989 C10.201866,0.280133033 8.86265148,0.665980481 8.27463252,1.72996639 C8.09449231,2.05591956 8,2.42224982 8,2.79466889 L8,15.0007595 Z" id="path-3"></path>
        <filter x="-2.4%" y="-60.0%" width="104.7%" height="220.0%" filterUnits="objectBoundingBox" id="filter-4">
            <feOffset dx="0" dy="0" in="SourceAlpha" result="shadowOffsetOuter1"></feOffset>
            <feGaussianBlur stdDeviation="3" in="shadowOffsetOuter1" result="shadowBlurOuter1"></feGaussianBlur>
            <feColorMatrix values="0 0 0 0 0   0 0 0 0 0   0 0 0 0 0  0 0 0 0.06 0" type="matrix" in="shadowBlurOuter1"></feColorMatrix>
        </filter>
    </defs>
    <g id="Page-1" stroke="none" stroke-width="1" fill="none" fill-rule="evenodd">
        <g id="wave" transform="translate(-2.000000, 0.000000)">
            <g>
                <mask id="mask-2" fill="white">
                    <use xlink:href="#path-1"></use>
                </mask>
                <g id="Mask"></g>
                <g id="Mask" fill-rule="nonzero" mask="url(#mask-2)" transform="translate(199.000000, 7.500380) scale(1, -1) translate(-199.000000, -7.500380) ">
                    <use fill="black" fill-opacity="1" filter="url(#filter-4)" xlink:href="#path-3"></use>
                    <use fill="#FFFFFF" xlink:href="#path-3"></use>
                </g>
            </g>
        </g>
    </g>
</svg>
